<svg width="284" height="51" viewBox="0 0 284 51" fill="none" xmlns="http://www.w3.org/2000/svg">
<path fill-rule="evenodd" clip-rule="evenodd" d="M59.1928 47.2209C59.1928 47.2209 55.0644 50.9885 46.6291 50.9885C38.1938 50.9885 34.1234 47.2209 34.1234 47.2209H0.676575V0.00991821H283.323V47.0921L59.1928 47.2209Z" fill="#31A563"/>
<path fill-rule="evenodd" clip-rule="evenodd" d="M46.6275 48.9808C57.9062 48.9808 67.0829 39.1825 67.0829 27.1399C67.0829 15.0972 57.9062 5.29889 46.6275 5.29889C35.3489 5.29889 26.1722 15.0972 26.1722 27.1399C26.1722 39.1825 35.3489 48.9808 46.6275 48.9808ZM27.3703 27.1399C27.3703 15.8012 36.0099 6.57649 46.6291 6.57649C57.2484 6.57649 65.8879 15.8012 65.8879 27.1399C65.8879 38.4785 57.2484 47.7032 46.6291 47.7032C36.0082 47.7032 27.3703 38.4785 27.3703 27.1399ZM78.8569 10.1036H100.716L96.0893 33.9554H74.1511L78.8569 10.1036ZM102.392 10.1036H124.25L119.623 33.9554H97.6847L102.392 10.1036ZM125.926 10.1036H147.785L143.158 33.9554H121.218L125.926 10.1036ZM149.459 10.1036H171.317L166.69 33.9554H144.753L149.459 10.1036ZM194.474 10.3062H172.607L172.525 10.7132L168.004 33.8764L167.882 34.4912H190.421L190.5 34.0825L194.942 10.9193L195.058 10.3062H194.474ZM189.64 33.4694H169.059L173.382 11.328H193.887L189.64 33.4694Z" fill="#FFF22D"/>
<path fill-rule="evenodd" clip-rule="evenodd" d="M217.916 10.3062H196.048L195.97 10.7132L191.447 33.8765L191.328 34.4913H213.865L213.944 34.0826L218.389 10.9193L218.505 10.3062H217.916ZM213.085 33.4695H192.504L196.827 11.328H217.332L213.085 33.4695Z" fill="#EFE436"/>
<path fill-rule="evenodd" clip-rule="evenodd" d="M241.361 10.3062H219.494L219.415 10.7132L214.892 33.8765L214.773 34.4913H237.31L237.389 34.0826L241.831 10.9193L241.95 10.3062H241.361ZM236.527 33.4695H215.946L220.27 11.328H240.772L236.527 33.4695ZM264.806 10.3062H242.935L242.857 10.7132L238.336 33.8765L238.214 34.4913H260.753L260.832 34.0826L265.274 10.9193L265.39 10.3062H264.806ZM259.972 33.4695H239.391L243.714 11.328H264.219L259.972 33.4695Z" fill="#FFF22D"/>
<path fill-rule="evenodd" clip-rule="evenodd" d="M93.2571 13.5964H84.4423L75.2689 31.9102H81.6906L83.4854 27.9933H88.6318L88.9905 31.9102H96.0909L93.2571 13.5964ZM85.1596 23.6471L87.9917 17.855L88.709 23.6471H85.1596ZM106.02 13.5964H119.583L118.507 18.8338H111.525L109.013 31.9085H102.551L106.02 13.5964Z" fill="#31A563"/>
<path fill-rule="evenodd" clip-rule="evenodd" d="M247.167 13.5964H260.726L259.648 18.8338H252.668L250.156 31.9086H243.695L247.167 13.5964Z" fill="#FFF22D"/>
<path fill-rule="evenodd" clip-rule="evenodd" d="M137.492 13.5964H127.918L124.369 31.9103H130.791L131.907 26.587H136.654C139.287 26.587 144.073 24.3289 144.073 18.8339C144.075 13.3405 137.492 13.5964 137.492 13.5964ZM134.821 22.2837C134.142 22.2837 132.508 22.3266 132.508 22.3266L133.267 17.8551H135.58C135.58 17.8551 137.494 17.9838 137.494 19.9414C137.492 21.9008 135.498 22.2837 134.821 22.2837Z" fill="#31A563"/>
<path fill-rule="evenodd" clip-rule="evenodd" d="M231.549 13.5964H221.975L218.426 31.9103H224.849L225.964 26.587H230.709C233.345 26.587 238.128 24.3289 238.128 18.8339C238.128 13.3405 231.549 13.5964 231.549 13.5964ZM228.874 22.2837C228.196 22.2837 226.562 22.3266 226.562 22.3266L227.319 17.8551H229.634C229.634 17.8551 231.546 17.9838 231.546 19.9414C231.549 21.9008 229.553 22.2837 228.874 22.2837ZM173.023 18.8339L173.95 13.5964H191.96L190.912 18.8339H185.257L182.805 31.9086H176.224L178.617 18.8339H173.023Z" fill="#FFF22D"/>
<path fill-rule="evenodd" clip-rule="evenodd" d="M160.16 13.5208C148.073 13.5208 148.284 25.148 148.284 25.148C148.284 32.6539 156.24 31.9515 156.24 31.9515C167.727 31.9515 167.758 20.8344 167.758 20.8344C167.759 12.9147 160.16 13.5208 160.16 13.5208ZM157.079 27.9917C157.079 27.9917 155.103 28.3746 155.103 25.3403C155.103 25.3403 155.194 17.8327 159.083 17.8327C159.083 17.8327 160.995 17.546 160.995 20.6764C160.995 20.6764 160.638 27.9917 157.079 27.9917Z" fill="#31A563"/>
<path fill-rule="evenodd" clip-rule="evenodd" d="M206.909 13.5208C194.821 13.5208 195.029 25.148 195.029 25.148C195.029 32.6538 202.988 31.9515 202.988 31.9515C214.476 31.9515 214.506 20.8344 214.506 20.8344C214.508 12.9147 206.909 13.5208 206.909 13.5208ZM203.824 27.9917C203.824 27.9917 201.851 28.3746 201.851 25.3403C201.851 25.3403 201.939 17.8327 205.831 17.8327C205.831 17.8327 207.744 17.546 207.744 20.6764C207.745 20.6764 207.387 27.9917 203.824 27.9917ZM33.6135 14.0017V22.7851C33.6135 22.7851 33.6135 26.5544 37.3238 28.2149L46.0003 30.1004L45.9697 21.3169C45.9697 21.3169 45.7317 16.8127 41.8124 15.791L33.6135 14.0017ZM59.6415 28.7902V37.5736C59.6415 37.5736 59.6415 41.3429 55.9312 43.0034L47.2547 44.8889L47.2853 36.1054C47.2853 36.1054 47.5249 31.6012 51.4426 30.5795L59.6415 28.7902ZM51.4442 15.7893C47.5249 16.811 47.2869 21.3152 47.2869 21.3152L47.2563 30.0987L55.9329 28.2132C59.6431 26.5527 59.6431 22.7834 59.6431 22.7834V13.9999L51.4442 15.7893ZM54.9743 27.607L48.0637 29.0117V21.4097C48.0637 21.4097 48.4223 17.7348 51.055 16.8728L58.654 15.0835L58.7441 22.4623C58.7441 22.4657 58.6846 26.6179 54.9743 27.607ZM33.5846 28.8211V37.6045C33.5846 37.6045 33.5846 41.3738 37.2948 43.0343L45.9697 44.9198L45.9408 36.1363C45.9408 36.1363 45.7012 31.6321 41.7819 30.6104L33.5846 28.8211ZM34.482 37.2868L34.5721 29.9081L42.1711 31.6957C44.8038 32.5594 45.1624 36.2325 45.1624 36.2325V43.8362L38.2517 42.4299C34.5415 41.439 34.482 37.2868 34.482 37.2868ZM0.676575 38.7877H26.883L28.4382 41.2793H0.676575V38.7877ZM64.9358 41.2793L66.491 38.7877L283.145 38.81V41.1523L64.9358 41.2793Z" fill="#FFF22D"/>
</svg>
