<?xml version="1.0" encoding="UTF-8"?>
<svg width="284px" height="300px" viewBox="0 0 284 300" xmlns="http://www.w3.org/2000/svg" xmlns:xlink="http://www.w3.org/1999/xlink" version="1.1">
 <!-- Generated by Pixelmator Pro 2.1.5 -->
 <path id="Путь" d="M59.193 172.221 C59.193 172.221 55.064 175.988 46.629 175.988 38.194 175.988 34.123 172.221 34.123 172.221 L0.677 172.221 0.677 125.01 283.323 125.01 283.323 172.092 Z" fill="#31a563" fill-opacity="1" stroke="none"/>
 <path id="Путь-1" d="M46.627 173.981 C57.906 173.981 67.083 164.182 67.083 152.14 67.083 140.097 57.906 130.299 46.627 130.299 35.349 130.299 26.172 140.097 26.172 152.14 26.172 164.182 35.349 173.981 46.627 173.981 Z M27.37 152.14 C27.37 140.801 36.01 131.576 46.629 131.576 57.248 131.576 65.888 140.801 65.888 152.14 65.888 163.479 57.248 172.703 46.629 172.703 36.008 172.703 27.37 163.479 27.37 152.14 Z M78.857 135.104 L100.716 135.104 96.089 158.955 74.151 158.955 Z M102.392 135.104 L124.25 135.104 119.623 158.955 97.685 158.955 Z M125.926 135.104 L147.785 135.104 143.158 158.955 121.218 158.955 Z M149.459 135.104 L171.317 135.104 166.69 158.955 144.753 158.955 Z M194.474 135.306 L172.607 135.306 172.525 135.713 168.004 158.876 167.882 159.491 190.421 159.491 190.5 159.083 194.942 135.919 195.058 135.306 Z M189.64 158.469 L169.059 158.469 173.382 136.328 193.887 136.328 Z" fill="#fff22d" fill-opacity="1" stroke="none"/>
 <path id="Путь-2" d="M217.916 135.306 L196.048 135.306 195.97 135.713 191.447 158.876 191.328 159.491 213.865 159.491 213.944 159.083 218.389 135.919 218.505 135.306 Z M213.085 158.469 L192.504 158.469 196.827 136.328 217.332 136.328 Z" fill="#efe436" fill-opacity="1" stroke="none"/>
 <path id="Путь-3" d="M241.361 135.306 L219.494 135.306 219.415 135.713 214.892 158.876 214.773 159.491 237.31 159.491 237.389 159.083 241.831 135.919 241.95 135.306 Z M236.527 158.469 L215.946 158.469 220.27 136.328 240.772 136.328 Z M264.806 135.306 L242.935 135.306 242.857 135.713 238.336 158.876 238.214 159.491 260.753 159.491 260.832 159.083 265.274 135.919 265.39 135.306 Z M259.972 158.469 L239.391 158.469 243.714 136.328 264.219 136.328 Z" fill="#fff22d" fill-opacity="1" stroke="none"/>
 <path id="Путь-4" d="M93.257 138.596 L84.442 138.596 75.269 156.91 81.691 156.91 83.485 152.993 88.632 152.993 88.991 156.91 96.091 156.91 Z M85.16 148.647 L87.992 142.855 88.709 148.647 Z M106.02 138.596 L119.583 138.596 118.507 143.834 111.525 143.834 109.013 156.908 102.551 156.908 Z" fill="#31a563" fill-opacity="1" stroke="none"/>
 <path id="Путь-5" d="M247.167 138.596 L260.726 138.596 259.648 143.834 252.668 143.834 250.156 156.909 243.695 156.909 Z" fill="#fff22d" fill-opacity="1" stroke="none"/>
 <path id="Путь-6" d="M137.492 138.596 L127.918 138.596 124.369 156.91 130.791 156.91 131.907 151.587 136.654 151.587 C139.287 151.587 144.073 149.329 144.073 143.834 144.075 138.34 137.492 138.596 137.492 138.596 Z M134.821 147.284 C134.142 147.284 132.508 147.327 132.508 147.327 L133.267 142.855 135.58 142.855 C135.58 142.855 137.494 142.984 137.494 144.941 137.492 146.901 135.498 147.284 134.821 147.284 Z" fill="#31a563" fill-opacity="1" stroke="none"/>
 <path id="Путь-7" d="M231.549 138.596 L221.975 138.596 218.426 156.91 224.849 156.91 225.964 151.587 230.709 151.587 C233.345 151.587 238.128 149.329 238.128 143.834 238.128 138.34 231.549 138.596 231.549 138.596 Z M228.874 147.284 C228.196 147.284 226.562 147.327 226.562 147.327 L227.319 142.855 229.634 142.855 C229.634 142.855 231.546 142.984 231.546 144.941 231.549 146.901 229.553 147.284 228.874 147.284 Z M173.023 143.834 L173.95 138.596 191.96 138.596 190.912 143.834 185.257 143.834 182.805 156.909 176.224 156.909 178.617 143.834 Z" fill="#fff22d" fill-opacity="1" stroke="none"/>
 <path id="Путь-8" d="M160.16 138.521 C148.073 138.521 148.284 150.148 148.284 150.148 148.284 157.654 156.24 156.951 156.24 156.951 167.727 156.951 167.758 145.834 167.758 145.834 167.759 137.915 160.16 138.521 160.16 138.521 Z M157.079 152.992 C157.079 152.992 155.103 153.375 155.103 150.34 155.103 150.34 155.194 142.833 159.083 142.833 159.083 142.833 160.995 142.546 160.995 145.676 160.995 145.676 160.638 152.992 157.079 152.992 Z" fill="#31a563" fill-opacity="1" stroke="none"/>
 <path id="Путь-9" d="M206.909 138.521 C194.821 138.521 195.029 150.148 195.029 150.148 195.029 157.654 202.988 156.952 202.988 156.952 214.476 156.952 214.506 145.834 214.506 145.834 214.508 137.915 206.909 138.521 206.909 138.521 Z M203.824 152.992 C203.824 152.992 201.851 153.375 201.851 150.34 201.851 150.34 201.939 142.833 205.831 142.833 205.831 142.833 207.744 142.546 207.744 145.676 207.745 145.676 207.387 152.992 203.824 152.992 Z M33.614 139.002 L33.614 147.785 C33.614 147.785 33.614 151.554 37.324 153.215 L46 155.1 45.97 146.317 C45.97 146.317 45.732 141.813 41.812 140.791 Z M59.642 153.79 L59.642 162.574 C59.642 162.574 59.642 166.343 55.931 168.003 L47.255 169.889 47.285 161.105 C47.285 161.105 47.525 156.601 51.443 155.579 Z M51.444 140.789 C47.525 141.811 47.287 146.315 47.287 146.315 L47.256 155.099 55.933 153.213 C59.643 151.553 59.643 147.783 59.643 147.783 L59.643 139 Z M54.974 152.607 L48.064 154.012 48.064 146.41 C48.064 146.41 48.422 142.735 51.055 141.873 L58.654 140.083 58.744 147.462 C58.744 147.466 58.685 151.618 54.974 152.607 Z M33.585 153.821 L33.585 162.605 C33.585 162.605 33.585 166.374 37.295 168.034 L45.97 169.92 45.941 161.136 C45.941 161.136 45.701 156.632 41.782 155.61 Z M34.482 162.287 L34.572 154.908 42.171 156.696 C44.804 157.559 45.162 161.232 45.162 161.232 L45.162 168.836 38.252 167.43 C34.542 166.439 34.482 162.287 34.482 162.287 Z M0.677 163.788 L26.883 163.788 28.438 166.279 0.677 166.279 Z M64.936 166.279 L66.491 163.788 283.145 163.81 283.145 166.152 Z" fill="#fff22d" fill-opacity="1" stroke="none"/>
</svg>
