<svg width="128" height="128" viewBox="0 0 128 128" fill="none" xmlns="http://www.w3.org/2000/svg">
<path d="M113.778 14.2222V113.778H14.2222V14.2222H113.778ZM113.778 0H14.2222C6.4 0 0 6.4 0 14.2222V113.778C0 121.6 6.4 128 14.2222 128H113.778C121.6 128 128 121.6 128 113.778V14.2222C128 6.4 121.6 0 113.778 0Z" fill="#FCAF10"/>
<path d="M96.0082 50.7392L60.1354 86.9864C57.4789 89.6712 53.1698 89.6712 50.5109 86.9864L31.9931 68.2727C29.3356 65.5878 29.3356 61.2329 31.9931 58.5476C34.651 55.8617 38.9598 55.8617 41.6166 58.5466L55.3245 72.3987L86.3832 41.0136C89.0411 38.3278 93.3502 38.3298 96.0072 41.0136C98.6641 43.699 98.6641 48.0524 96.0082 50.7392Z" fill="#FCAF10"/>
</svg>
