<svg xmlns="http://www.w3.org/2000/svg" width="125" height="75" viewBox="0 0 200 100">
  <defs>
    <style>
      .cls-1, .cls-2 {
        fill-rule: evenodd;
      }

      .cls-2 {
        fill: #fcaf10;
      }
    </style>
  </defs>
  <path id="Заливка_цветом_1" data-name="Заливка цветом 1" class="cls-1" d="M87,27h23v7c-4.692-.157-13.053,0-16,0,0,1.838-.089,6.7,0,10H87V27Zm32,0V54H87c0-1.286,0-4.011,0-7h25c0-4.815.075-14.072,0-20h7ZM45,67h5v6c11.973,0.017,9.765,0,12,0-0.019,0,0,4.507,0,5H59c-0.034,0,0,6.565,0,8H54c0.037-3.323,0-5.963,0-8-3.08,0-5.431.021-9,0V67Zm26,0h5V86H71V67Zm23,0V86H89V75l-2,2-6,6-3,3V77c0.881-.872,2.171-2.171,3-3,0.528-.528,2.4-2.65,4-4,0.8-.672,2.7-3,3-3h6Zm18,0h9v1c-5.929,5.557-11.451,12.067-17,18H97V84A196.8,196.8,0,0,0,112,67Zm10,0h6V86h-6V67Zm15,0h9c0,0.333-.456.456-2,2-4.519,4.519-3.306,3.306-6.966,7.014C137.792,76.772,145.948,86,146,86h-8c-1.174-1.174-7.588-7.572-8.01-7.994,0-.459.01-3.29,0.01-4.006Zm11,0h16v4H153v7h-5C148,75.85,147.887,70.692,148,67Zm19,0h5V86H148V81h19V67Zm-11,6h8v5h-8V73ZM120,86h-5c0-2.049.007-4.674,0-8a7.717,7.717,0,0,0,4-4h1V86ZM63,71c0.034,4.969,0,7,0,7m0,0c1.806,0,5.014-.026,5,0-0.079.151,0-10.174,0-11,0-.017-15.945,0-16,0s0.065,4,0,4H63"/>
  <path id="Заливка_цветом_2" data-name="Заливка цветом 2" class="cls-2" d="M107,17h23V35h-7V24H107C107,22.451,106.969,19.915,107,17ZM97,37h13v7H97V37Z"/>
</svg>
