<?xml version="1.0" encoding="UTF-8" standalone="no"?>
<svg
   width="125"
   height="75"
   viewBox="0 0 200 100"
   version="1.1"
   id="svg127"
   sodipodi:docname="logo-filko.svg"
   inkscape:version="1.1.1 (c3084ef, 2021-09-22)"
   xmlns:inkscape="http://www.inkscape.org/namespaces/inkscape"
   xmlns:sodipodi="http://sodipodi.sourceforge.net/DTD/sodipodi-0.dtd"
   xmlns="http://www.w3.org/2000/svg"
   xmlns:svg="http://www.w3.org/2000/svg">
  <sodipodi:namedview
     id="namedview129"
     pagecolor="#ffffff"
     bordercolor="#666666"
     borderopacity="1.0"
     inkscape:pageshadow="2"
     inkscape:pageopacity="0.0"
     inkscape:pagecheckerboard="0"
     showgrid="true"
     showguides="true"
     inkscape:guide-bbox="true"
     inkscape:zoom="25.883329"
     inkscape:cx="69.25307"
     inkscape:cy="52.369616"
     inkscape:window-width="1312"
     inkscape:window-height="777"
     inkscape:window-x="0"
     inkscape:window-y="25"
     inkscape:window-maximized="0"
     inkscape:current-layer="svg127">
    <inkscape:grid
       type="xygrid"
       id="grid614" />
  </sodipodi:namedview>
  <defs
     id="defs123">
    <style
       id="style121">
      .cls-1, .cls-2 {
        fill-rule: evenodd;
      }

      .cls-2 {
        fill: #fcaf10;
      }
    </style>
  </defs>
  <path
     id="Заливка_цветом_1"
     data-name="Заливка цветом 1"
     class="cls-1"
     d="m 87,27 h 23 v 7 c -4.692,-0.157 -13.053,0 -16,0 0,1.838 -0.089,6.7 0,10 h -7 z m 32,0 V 54 H 87 v -7 h 25 c 0,-4.815 0.075,-14.072 0,-20 z M 45,67 h 5 v 6 c 11.973,0.017 9.010961,0 11.245961,0 -0.019,0 0,4.507 0,5 C 60.491922,77.94614 59,78 59,78 c -0.034,0 0,6.565 0,8 h -5 c 0.037,-3.323 0,-5.963 0,-8 -3.08,0 -5.431,0.021 -9,0 z m 26,0 h 5 v 19 h -5 z m 23,0 V 86 H 89 V 75 l -2,2 -6,6 -3,3 v -9 c 0.881,-0.872 2.171,-2.171 3,-3 0.528,-0.528 2.4,-2.65 4,-4 0.8,-0.672 2.7,-3 3,-3 z m 18,0 h 9 v 1 c -5.929,5.557 -11.451,12.067 -17,18 h -7 v -2 c 5.32252,-5.373717 10.33083,-11.049799 15,-17 z m 10,0 h 6 v 19 h -6 z m 15,0 h 9 c 0,0.333 -0.456,0.456 -2,2 -4.519,4.519 -3.306,3.306 -6.966,7.014 C 137.792,76.772 145.948,86 146,86 h -8 c -1.174,-1.174 -7.588,-7.572 -8.01,-7.994 0,-0.459 0.01,-3.29 0.01,-4.006 z m 11,0 h 16 v 4 h -11 v 7 h -5 c 0,-2.15 -0.113,-7.308 0,-11 z m 19,0 h 5 v 19 h -24 v -5 h 19 z m -11,6 h 8 v 5 h -8 z m -36.31726,12.715368 c -79.788493,-63.810245 -39.894247,-31.905123 0,0 z M 63,71 c 0.034,4.969 0,7 0,7 m 0,0 c 1.806,0 5.014,-0.026 5,0 -0.079,0.151 0,-10.174 0,-11 0,-0.017 -15.945,0 -16,0 -0.055,0 0.065,4 0,4 h 11"
     style="opacity:1"
     sodipodi:nodetypes="cccccccccccccccccccsccccccccccccccccccscscccccccccccccccscccccccccccccccccccccccccccccccsscc" />
  <path
     id="Заливка_цветом_2"
     data-name="Заливка цветом 2"
     class="cls-2"
     d="M107,17h23V35h-7V24H107C107,22.451,106.969,19.915,107,17ZM97,37h13v7H97V37Z" />
  <rect
     style="opacity:1;fill:#000000;stroke-width:1.6"
     id="rect3578"
     width="4.8174362"
     height="8.1311436"
     x="115.18256"
     y="77.868858" />
  <path
     id="rect7903"
     style="opacity:1;stroke-width:1.6"
     d="M 120,71.6 V 78 h -4.8 v -1.6 z"
     sodipodi:nodetypes="ccccc" />
</svg>
