<svg id="Capa_1" enable-background="new 0 0 512.011 512.011" height="512" viewBox="0 0 512.011 512.011" width="512" xmlns="http://www.w3.org/2000/svg"><g><path d="m344.192 364.76h-310.748l-8.848 38.966h136.151l72.191 108.285h49.231l-72.191-108.285h158.522l34.363-68.966h68.892l-8.799-38.749h-84.335z"/><path d="m478.567 364.76h-57.134l-34.363 68.966h-121.037l52.191 78.285h193.78z"/><circle cx="256.006" cy="100.161" r="23.468"/><path d="m325.665 334.76 34.429-68.749h96.05l-21.313-93.86h-69.975c-33.923 60.063-96.184 107.882-99.78 110.613l-9.07 6.886-9.07-6.886c-3.596-2.73-65.857-50.549-99.78-110.613h-69.976l-36.923 162.609z"/><path d="m144.692 433.726h-126.908l-17.776 78.285h196.875z"/><path d="m256.006 251.531c10.548-8.831 28.829-25.026 46.892-45.256 35.056-39.262 53.585-75.846 53.585-105.798-.001-55.403-45.074-100.477-100.477-100.477s-100.477 45.074-100.477 100.477c0 29.952 18.529 66.537 53.585 105.798 18.06 20.228 36.342 36.424 46.892 45.256zm0-204.838c29.482 0 53.468 23.985 53.468 53.468s-23.985 53.468-53.468 53.468c-29.482 0-53.468-23.985-53.468-53.468s23.985-53.468 53.468-53.468z"/></g></svg>