<svg width="612" height="612" viewBox="0 0 612 612" xmlns="http://www.w3.org/2000/svg">
<path d="M612 327.573V305.967C612 295.434 607.787 285.339 600.299 277.93L484.107 162.971C476.723 155.665 466.755 151.568 456.368 151.568H397.746V129.58C397.746 113.244 384.503 100 368.166 100H29.58C13.243 100 0 113.243 0 129.58V327.573H612ZM432.551 190.316C432.551 187.753 434.622 185.682 437.186 185.682H458.582C459.766 185.682 460.948 186.176 461.835 186.964L552.841 273.829C555.898 276.689 553.827 281.816 549.687 281.816H437.187C434.624 281.816 432.552 279.746 432.552 277.182V190.316H432.551ZM612 343.916V409.402C612 425.738 598.757 438.98 582.421 438.98H550.771C545.052 399.738 511.232 369.568 470.414 369.568C429.693 369.568 395.874 399.738 390.155 438.98H229.735C224.017 399.738 190.197 369.568 149.476 369.568C108.755 369.568 74.935 399.738 69.217 438.98H29.58C13.243 438.981 0 425.739 0 409.403V343.917H612V343.916ZM470.456 389.326C436.573 389.326 409.105 416.793 409.105 450.676C409.105 484.559 436.574 512.026 470.456 512.026C504.338 512.026 531.806 484.559 531.806 450.676C531.806 416.793 504.339 389.326 470.456 389.326ZM470.456 481.352C453.515 481.352 439.781 467.618 439.781 450.676C439.781 433.734 453.513 420.002 470.456 420.002C487.397 420.002 501.132 433.734 501.132 450.676C501.132 467.618 487.397 481.352 470.456 481.352ZM149.464 389.326C115.581 389.326 88.114 416.793 88.114 450.676C88.114 484.559 115.582 512.026 149.464 512.026C183.346 512.026 210.814 484.559 210.814 450.676C210.814 416.793 183.346 389.326 149.464 389.326ZM149.464 481.352C132.523 481.352 118.788 467.618 118.788 450.676C118.788 433.734 132.522 420.002 149.464 420.002C166.405 420.002 180.139 433.734 180.139 450.676C180.139 467.618 166.405 481.352 149.464 481.352Z"/>
<path d="M303.367 260.322L287.699 251.291L301.277 243.298C303.781 241.824 304.614 238.602 303.137 236.102C301.661 233.603 298.434 232.771 295.929 234.244L277.227 245.254L249.027 229L277.222 212.748L295.93 223.756C296.769 224.25 297.689 224.484 298.598 224.484C300.4 224.484 302.155 223.559 303.137 221.897C304.613 219.397 303.779 216.175 301.275 214.701L287.696 206.71L303.367 197.678C305.884 196.227 306.747 193.013 305.293 190.499C303.84 187.985 300.62 187.124 298.103 188.576L282.436 197.607L282.293 181.869C282.267 178.966 279.882 176.621 276.982 176.661C274.075 176.687 271.74 179.061 271.766 181.963L271.962 203.644L243.764 219.898V187.392L262.67 176.725C265.201 175.297 266.093 172.091 264.662 169.564C263.232 167.037 260.02 166.146 257.489 167.574L243.764 175.319V157.255C243.764 154.353 241.407 152 238.5 152C235.593 152 233.237 154.353 233.237 157.255V175.319L219.511 167.575C216.979 166.146 213.77 167.037 212.339 169.564C210.908 172.091 211.8 175.297 214.331 176.726L233.236 187.393V219.898L205.038 203.644L205.234 181.963C205.26 179.061 202.925 176.687 200.018 176.661C200.002 176.661 199.986 176.661 199.969 176.661C197.085 176.661 194.733 178.982 194.707 181.869L194.564 197.607L178.897 188.576C176.38 187.124 173.16 187.986 171.707 190.499C170.253 193.013 171.116 196.227 173.633 197.678L189.303 206.71L175.722 214.702C173.218 216.175 172.384 219.397 173.86 221.898C174.842 223.561 176.597 224.486 178.4 224.486C179.308 224.486 180.229 224.251 181.068 223.758L199.778 212.749L227.973 229.001L199.773 245.256L181.068 234.244C178.565 232.77 175.337 233.601 173.86 236.101C172.383 238.601 173.216 241.823 175.721 243.297L189.3 251.29L173.633 260.321C171.115 261.772 170.253 264.986 171.706 267.499C172.681 269.185 174.45 270.128 176.269 270.128C177.162 270.128 178.068 269.901 178.896 269.423L194.564 260.392L194.706 276.131C194.732 279.017 197.084 281.339 199.969 281.339C199.985 281.339 200.001 281.339 200.017 281.338C202.924 281.312 205.26 278.938 205.233 276.036L205.037 254.355L233.236 238.101V270.607L214.331 281.274C211.8 282.703 210.908 285.908 212.339 288.436C213.306 290.145 215.09 291.106 216.926 291.106C217.803 291.106 218.693 290.887 219.511 290.425L233.237 282.681V300.745C233.237 303.647 235.593 306 238.5 306C241.407 306 243.764 303.647 243.764 300.745V282.681L257.489 290.425C258.308 290.887 259.197 291.106 260.075 291.106C261.911 291.106 263.694 290.145 264.662 288.436C266.093 285.909 265.201 282.703 262.67 281.274L243.764 270.607V238.102L271.962 254.355L271.761 276.035C271.734 278.938 274.069 281.312 276.976 281.339C276.993 281.34 277.009 281.34 277.026 281.34C279.91 281.34 282.262 279.018 282.288 276.133L282.434 260.392L298.104 269.424C298.932 269.901 299.838 270.128 300.731 270.128C302.55 270.128 304.319 269.185 305.294 267.5C306.747 264.987 305.885 261.773 303.367 260.322Z" fill="white"/>
</svg>
